<svg width="21" height="21" viewBox="0 0 21 21" fill="none" xmlns="http://www.w3.org/2000/svg">
<path d="M10.0303 6.18994V17.8566" stroke="#2563EB" stroke-width="1.66667" stroke-linecap="round" stroke-linejoin="round"/>
<path d="M2.53011 15.3564C2.3091 15.3564 2.09714 15.2686 1.94085 15.1124C1.78457 14.9561 1.69678 14.7441 1.69678 14.5231V3.68978C1.69678 3.46876 1.78457 3.2568 1.94085 3.10052C2.09714 2.94424 2.3091 2.85645 2.53011 2.85645H6.69678C7.58083 2.85645 8.42868 3.20763 9.0538 3.83276C9.67892 4.45788 10.0301 5.30572 10.0301 6.18978C10.0301 5.30572 10.3813 4.45788 11.0064 3.83276C11.6315 3.20763 12.4794 2.85645 13.3634 2.85645H17.5301C17.7511 2.85645 17.9631 2.94424 18.1194 3.10052C18.2756 3.2568 18.3634 3.46876 18.3634 3.68978V14.5231C18.3634 14.7441 18.2756 14.9561 18.1194 15.1124C17.9631 15.2686 17.7511 15.3564 17.5301 15.3564H12.5301C11.8671 15.3564 11.2312 15.6198 10.7623 16.0887C10.2935 16.5575 10.0301 17.1934 10.0301 17.8564C10.0301 17.1934 9.76672 16.5575 9.29788 16.0887C8.82904 15.6198 8.19315 15.3564 7.53011 15.3564H2.53011Z" stroke="#2563EB" stroke-width="1.66667" stroke-linecap="round" stroke-linejoin="round"/>
</svg>
