<svg width="157" height="37" viewBox="0 0 157 37" fill="none" xmlns="http://www.w3.org/2000/svg">
<rect x="0.839844" y="0.356445" width="155.19" height="36" rx="18" fill="#2563EB"/>
<path d="M26.9146 16.4857H25.3634C25.3038 16.1543 25.1927 15.8626 25.0303 15.6107C24.8679 15.3588 24.6691 15.145 24.4338 14.9694C24.1984 14.7937 23.9349 14.6611 23.6433 14.5716C23.3549 14.4822 23.0483 14.4374 22.7235 14.4374C22.1369 14.4374 21.6115 14.5849 21.1475 14.8799C20.6868 15.1749 20.3222 15.6074 20.0538 16.1775C19.7886 16.7475 19.6561 17.4436 19.6561 18.2655C19.6561 19.0941 19.7886 19.7935 20.0538 20.3635C20.3222 20.9336 20.6885 21.3645 21.1525 21.6562C21.6165 21.9478 22.1385 22.0937 22.7186 22.0937C23.04 22.0937 23.345 22.0506 23.6333 21.9644C23.925 21.8749 24.1885 21.744 24.4238 21.5716C24.6591 21.3993 24.858 21.1888 25.0204 20.9403C25.1861 20.6884 25.3005 20.4 25.3634 20.0752L26.9146 20.0802C26.8317 20.5806 26.671 21.0413 26.4323 21.4623C26.197 21.8799 25.8937 22.2412 25.5225 22.5461C25.1546 22.8477 24.7337 23.0814 24.2597 23.2471C23.7858 23.4128 23.2687 23.4956 22.7086 23.4956C21.827 23.4956 21.0415 23.2868 20.3521 22.8692C19.6627 22.4483 19.1191 21.8467 18.7214 21.0645C18.327 20.2823 18.1298 19.3493 18.1298 18.2655C18.1298 17.1784 18.3286 16.2454 18.7264 15.4665C19.1241 14.6843 19.6677 14.0844 20.357 13.6668C21.0464 13.2459 21.8303 13.0354 22.7086 13.0354C23.2489 13.0354 23.7526 13.1133 24.22 13.2691C24.6906 13.4215 25.1132 13.6469 25.4877 13.9452C25.8623 14.2402 26.1722 14.6015 26.4174 15.029C26.6627 15.4533 26.8284 15.9388 26.9146 16.4857ZM28.6335 23.3564V15.7201H31.8004C32.6621 15.7201 33.3449 15.904 33.8487 16.2719C34.3525 16.6365 34.6044 17.132 34.6044 17.7584C34.6044 18.2059 34.4619 18.5605 34.1768 18.8224C33.8918 19.0842 33.5139 19.2599 33.0433 19.3493C33.3847 19.3891 33.6979 19.4919 33.9829 19.6576C34.268 19.82 34.4967 20.0387 34.669 20.3138C34.8447 20.5889 34.9325 20.9171 34.9325 21.2982C34.9325 21.7026 34.8281 22.0605 34.6193 22.3721C34.4105 22.6803 34.1072 22.9223 33.7095 23.0979C33.3151 23.2703 32.8395 23.3564 32.2826 23.3564H28.6335ZM30.0305 22.1135H32.2826C32.6505 22.1135 32.9389 22.0257 33.1477 21.8501C33.3565 21.6744 33.4609 21.4358 33.4609 21.1341C33.4609 20.7795 33.3565 20.5011 33.1477 20.2989C32.9389 20.0934 32.6505 19.9907 32.2826 19.9907H30.0305V22.1135ZM30.0305 18.9019H31.8153C32.0937 18.9019 32.3324 18.8621 32.5312 18.7826C32.7334 18.703 32.8875 18.5903 32.9936 18.4445C33.103 18.2954 33.1576 18.1197 33.1576 17.9175C33.1576 17.6225 33.0367 17.3922 32.7947 17.2265C32.5528 17.0608 32.2213 16.9779 31.8004 16.9779H30.0305V18.9019ZM41.1172 23.3564V16.9878H39.2876C38.8534 16.9878 38.5154 17.0889 38.2734 17.2911C38.0315 17.4933 37.9105 17.7584 37.9105 18.0866C37.9105 18.4114 38.0215 18.6732 38.2436 18.8721C38.469 19.0676 38.7838 19.1654 39.1882 19.1654H41.5497V20.3685H39.1882C38.6247 20.3685 38.1375 20.2757 37.7265 20.0901C37.3189 19.9012 37.004 19.6344 36.7819 19.2897C36.5632 18.945 36.4538 18.5373 36.4538 18.0667C36.4538 17.5861 36.5665 17.1718 36.7919 16.8238C37.0206 16.4724 37.347 16.2007 37.7713 16.0084C38.1988 15.8162 38.7043 15.7201 39.2876 15.7201H42.5142V23.3564H41.1172ZM36.1058 23.3564L38.2585 19.4985H39.7798L37.6271 23.3564H36.1058ZM44.0405 21.338H45.5618C45.5817 21.6495 45.7225 21.8898 45.9844 22.0589C46.2495 22.2279 46.5925 22.3124 47.0135 22.3124C47.441 22.3124 47.8056 22.2213 48.1072 22.039C48.4088 21.8534 48.5596 21.5667 48.5596 21.1789C48.5596 20.9469 48.5016 20.7447 48.3856 20.5724C48.2729 20.3967 48.1122 20.2608 47.9034 20.1647C47.6979 20.0686 47.4543 20.0205 47.1726 20.0205H45.9297V18.8522H47.1726C47.5935 18.8522 47.9084 18.7561 48.1172 18.5638C48.326 18.3716 48.4304 18.1313 48.4304 17.843C48.4304 17.5314 48.3177 17.2812 48.0923 17.0922C47.8702 16.9 47.5603 16.8039 47.1626 16.8039C46.7583 16.8039 46.4219 16.895 46.1534 17.0773C45.8849 17.2563 45.7441 17.4883 45.7308 17.7733H44.2294C44.2393 17.3458 44.3686 16.9713 44.6172 16.6498C44.8691 16.325 45.2071 16.0731 45.6314 15.8941C46.0589 15.7118 46.5445 15.6206 47.088 15.6206C47.6548 15.6206 48.1453 15.7118 48.5596 15.8941C48.9739 16.0764 49.2938 16.3283 49.5192 16.6498C49.7478 16.9713 49.8622 17.3408 49.8622 17.7584C49.8622 18.1794 49.7362 18.5241 49.4844 18.7925C49.2358 19.0577 48.911 19.2483 48.5099 19.3643V19.4438C48.8049 19.4637 49.0667 19.5532 49.2954 19.7123C49.5241 19.8714 49.7031 20.0818 49.8324 20.3437C49.9616 20.6055 50.0263 20.9021 50.0263 21.2336C50.0263 21.7009 49.897 22.1053 49.6385 22.4466C49.3833 22.788 49.0286 23.0515 48.5746 23.2371C48.1238 23.4194 47.6084 23.5106 47.0284 23.5106C46.4649 23.5106 45.9595 23.4227 45.5121 23.2471C45.0679 23.0681 44.7149 22.8162 44.4531 22.4914C44.1946 22.1666 44.057 21.7821 44.0405 21.338ZM53.7835 23.5255C53.2996 23.5255 52.8621 23.436 52.471 23.257C52.0799 23.0747 51.77 22.8112 51.5414 22.4665C51.316 22.1218 51.2033 21.6992 51.2033 21.1988C51.2033 20.7679 51.2861 20.4133 51.4519 20.1349C51.6176 19.8564 51.8413 19.636 52.123 19.4736C52.4047 19.3112 52.7196 19.1886 53.0676 19.1057C53.4156 19.0229 53.7703 18.9599 54.1315 18.9168C54.5889 18.8638 54.9601 18.8207 55.2452 18.7876C55.5302 18.7511 55.7374 18.6931 55.8666 18.6135C55.9959 18.534 56.0605 18.4047 56.0605 18.2258V18.191C56.0605 17.7568 55.9379 17.4204 55.6926 17.1817C55.4507 16.9431 55.0894 16.8238 54.6088 16.8238C54.1083 16.8238 53.7139 16.9348 53.4256 17.1569C53.1405 17.3756 52.9433 17.6192 52.834 17.8877L51.4369 17.5695C51.6027 17.1055 51.8446 16.731 52.1628 16.4459C52.4843 16.1576 52.8539 15.9488 53.2715 15.8195C53.6891 15.6869 54.1282 15.6206 54.5889 15.6206C54.8939 15.6206 55.217 15.6571 55.5584 15.73C55.9031 15.7996 56.2246 15.9289 56.5229 16.1178C56.8245 16.3067 57.0714 16.5769 57.2637 16.9282C57.4559 17.2762 57.552 17.7286 57.552 18.2854V23.3564H56.1003V22.3124H56.0406C55.9445 22.5046 55.8003 22.6936 55.6081 22.8792C55.4159 23.0648 55.169 23.2189 54.8673 23.3415C54.5657 23.4642 54.2045 23.5255 53.7835 23.5255ZM54.1067 22.3323C54.5177 22.3323 54.869 22.2511 55.1607 22.0887C55.4556 21.9263 55.6794 21.7142 55.8318 21.4523C55.9876 21.1872 56.0655 20.9038 56.0655 20.6022V19.6178C56.0125 19.6708 55.9097 19.7206 55.7573 19.767C55.6081 19.81 55.4374 19.8482 55.2452 19.8813C55.053 19.9111 54.8657 19.9393 54.6834 19.9658C54.5011 19.989 54.3486 20.0089 54.226 20.0255C53.9377 20.0619 53.6742 20.1233 53.4355 20.2094C53.2002 20.2956 53.0113 20.4199 52.8688 20.5823C52.7296 20.7414 52.66 20.9535 52.66 21.2187C52.66 21.5866 52.7958 21.865 53.0676 22.0539C53.3394 22.2395 53.6858 22.3323 54.1067 22.3323ZM58.5849 17.0028V15.7201H65.028V17.0028H62.5373V23.3564H61.0856V17.0028H58.5849ZM67.7189 18.3451H69.9362C70.8709 18.3451 71.5901 18.5771 72.0939 19.0411C72.5977 19.5051 72.8496 20.1034 72.8496 20.8358C72.8496 21.3131 72.7369 21.7423 72.5115 22.1235C72.2861 22.5046 71.9564 22.8063 71.5222 23.0283C71.088 23.2471 70.5593 23.3564 69.9362 23.3564H66.6003V15.7201H68.057V22.0738H69.9362C70.3638 22.0738 70.7151 21.9627 70.9902 21.7407C71.2653 21.5153 71.4029 21.2286 71.4029 20.8806C71.4029 20.5127 71.2653 20.2127 70.9902 19.9807C70.7151 19.7454 70.3638 19.6278 69.9362 19.6278H67.7189V18.3451ZM77.7329 23.5106C76.9938 23.5106 76.3575 23.3432 75.8238 23.0084C75.2935 22.6704 74.8859 22.2047 74.6008 21.6114C74.3158 21.0181 74.1733 20.3387 74.1733 19.5731C74.1733 18.7975 74.3191 18.1131 74.6108 17.5198C74.9024 16.9232 75.3134 16.4575 75.8437 16.1228C76.374 15.788 76.9988 15.6206 77.718 15.6206C78.298 15.6206 78.8151 15.7284 79.2692 15.9438C79.7232 16.1559 80.0895 16.4542 80.3679 16.8387C80.6496 17.2232 80.817 17.6723 80.87 18.186H79.4233C79.3437 17.828 79.1614 17.5198 78.8764 17.2613C78.5947 17.0028 78.2168 16.8735 77.7429 16.8735C77.3286 16.8735 76.9657 16.9829 76.6541 17.2016C76.3459 17.4171 76.1056 17.7253 75.9332 18.1263C75.7609 18.5241 75.6747 18.9947 75.6747 19.5383C75.6747 20.0951 75.7592 20.5757 75.9282 20.98C76.0973 21.3844 76.3359 21.6976 76.6442 21.9197C76.9557 22.1417 77.3219 22.2528 77.7429 22.2528C78.0246 22.2528 78.2798 22.2014 78.5085 22.0986C78.7405 21.9926 78.9344 21.8418 79.0902 21.6462C79.2493 21.4507 79.3603 21.2153 79.4233 20.9403H80.87C80.817 21.4341 80.6562 21.8749 80.3878 22.2627C80.1193 22.6505 79.7597 22.9554 79.3089 23.1775C78.8615 23.3995 78.3362 23.5106 77.7329 23.5106ZM87.0137 23.3564V16.9878H85.1841C84.7499 16.9878 84.4119 17.0889 84.1699 17.2911C83.928 17.4933 83.807 17.7584 83.807 18.0866C83.807 18.4114 83.918 18.6732 84.1401 18.8721C84.3655 19.0676 84.6803 19.1654 85.0847 19.1654H87.4462V20.3685H85.0847C84.5212 20.3685 84.034 20.2757 83.623 20.0901C83.2154 19.9012 82.9005 19.6344 82.6784 19.2897C82.4597 18.945 82.3503 18.5373 82.3503 18.0667C82.3503 17.5861 82.463 17.1718 82.6884 16.8238C82.9171 16.4724 83.2435 16.2007 83.6678 16.0084C84.0953 15.8162 84.6008 15.7201 85.1841 15.7201H88.4107V23.3564H87.0137ZM82.0023 23.3564L84.155 19.4985H85.6763L83.5236 23.3564H82.0023ZM97.3111 23.5106C96.572 23.5106 95.9356 23.3432 95.402 23.0084C94.8717 22.6704 94.464 22.2047 94.179 21.6114C93.8939 21.0181 93.7514 20.3387 93.7514 19.5731C93.7514 18.7975 93.8972 18.1131 94.1889 17.5198C94.4806 16.9232 94.8916 16.4575 95.4219 16.1228C95.9522 15.788 96.5769 15.6206 97.2961 15.6206C97.8762 15.6206 98.3932 15.7284 98.8473 15.9438C99.3014 16.1559 99.6676 16.4542 99.946 16.8387C100.228 17.2232 100.395 17.6723 100.448 18.186H99.0014C98.9219 17.828 98.7396 17.5198 98.4545 17.2613C98.1728 17.0028 97.795 16.8735 97.321 16.8735C96.9067 16.8735 96.5438 16.9829 96.2322 17.2016C95.924 17.4171 95.6837 17.7253 95.5113 18.1263C95.339 18.5241 95.2528 18.9947 95.2528 19.5383C95.2528 20.0951 95.3373 20.5757 95.5064 20.98C95.6754 21.3844 95.914 21.6976 96.2223 21.9197C96.5338 22.1417 96.9001 22.2528 97.321 22.2528C97.6027 22.2528 97.8579 22.2014 98.0866 22.0986C98.3186 21.9926 98.5125 21.8418 98.6683 21.6462C98.8274 21.4507 98.9384 21.2153 99.0014 20.9403H100.448C100.395 21.4341 100.234 21.8749 99.9659 22.2627C99.6974 22.6505 99.3378 22.9554 98.8871 23.1775C98.4396 23.3995 97.9143 23.5106 97.3111 23.5106ZM110.918 18.8969V20.1846H106.782V18.8969H110.918ZM107.2 15.7201V23.3564H105.743V15.7201H107.2ZM111.957 15.7201V23.3564H110.506V15.7201H111.957ZM116.168 23.5255C115.684 23.5255 115.247 23.436 114.856 23.257C114.465 23.0747 114.155 22.8112 113.926 22.4665C113.701 22.1218 113.588 21.6992 113.588 21.1988C113.588 20.7679 113.671 20.4133 113.837 20.1349C114.002 19.8564 114.226 19.636 114.508 19.4736C114.79 19.3112 115.104 19.1886 115.452 19.1057C115.8 19.0229 116.155 18.9599 116.516 18.9168C116.974 18.8638 117.345 18.8207 117.63 18.7876C117.915 18.7511 118.122 18.6931 118.251 18.6135C118.381 18.534 118.445 18.4047 118.445 18.2258V18.191C118.445 17.7568 118.323 17.4204 118.077 17.1817C117.835 16.9431 117.474 16.8238 116.994 16.8238C116.493 16.8238 116.099 16.9348 115.81 17.1569C115.525 17.3756 115.328 17.6192 115.219 17.8877L113.822 17.5695C113.987 17.1055 114.229 16.731 114.548 16.4459C114.869 16.1576 115.239 15.9488 115.656 15.8195C116.074 15.6869 116.513 15.6206 116.974 15.6206C117.279 15.6206 117.602 15.6571 117.943 15.73C118.288 15.7996 118.609 15.9289 118.908 16.1178C119.209 16.3067 119.456 16.5769 119.648 16.9282C119.841 17.2762 119.937 17.7286 119.937 18.2854V23.3564H118.485V22.3124H118.425C118.329 22.5046 118.185 22.6936 117.993 22.8792C117.801 23.0648 117.554 23.2189 117.252 23.3415C116.951 23.4642 116.589 23.5255 116.168 23.5255ZM116.491 22.3323C116.902 22.3323 117.254 22.2511 117.545 22.0887C117.84 21.9263 118.064 21.7142 118.217 21.4523C118.372 21.1872 118.45 20.9038 118.45 20.6022V19.6178C118.397 19.6708 118.294 19.7206 118.142 19.767C117.993 19.81 117.822 19.8482 117.63 19.8813C117.438 19.9111 117.25 19.9393 117.068 19.9658C116.886 19.989 116.733 20.0089 116.611 20.0255C116.322 20.0619 116.059 20.1233 115.82 20.2094C115.585 20.2956 115.396 20.4199 115.254 20.5823C115.114 20.7414 115.045 20.9535 115.045 21.2187C115.045 21.5866 115.181 21.865 115.452 22.0539C115.724 22.2395 116.071 22.3323 116.491 22.3323ZM126.202 21.517L128.668 15.7201H129.951L126.754 23.3564H125.65L122.518 15.7201H123.786L126.202 21.517ZM123.373 15.7201V23.3564H121.917V15.7201H123.373ZM129.071 23.3564V15.7201H130.518V23.3564H129.071ZM133.955 21.2733L137.321 15.7201H138.922V23.3564H137.465V17.7982L134.115 23.3564H132.499V15.7201H133.955V21.2733Z" fill="white"/>
</svg>
