<svg width="21" height="21" viewBox="0 0 21 21" fill="none" xmlns="http://www.w3.org/2000/svg">
<path d="M14.1968 2.02344H5.86344C3.56226 2.02344 1.69678 3.88892 1.69678 6.1901V14.5234C1.69678 16.8246 3.56226 18.6901 5.86344 18.6901H14.1968C16.498 18.6901 18.3634 16.8246 18.3634 14.5234V6.1901C18.3634 3.88892 16.498 2.02344 14.1968 2.02344Z" stroke="#2563EB" stroke-width="1.66667" stroke-linecap="round" stroke-linejoin="round"/>
<path d="M13.3635 9.8317C13.4664 10.5252 13.3479 11.2335 13.025 11.8559C12.7021 12.4782 12.1911 12.9829 11.5649 13.2981C10.9386 13.6133 10.2289 13.723 9.53668 13.6116C8.84446 13.5003 8.20499 13.1734 7.70922 12.6777C7.21346 12.1819 6.88664 11.5424 6.77525 10.8502C6.66386 10.158 6.77358 9.44827 7.0888 8.82201C7.40401 8.19574 7.90868 7.68481 8.53101 7.3619C9.15335 7.03898 9.86165 6.92052 10.5552 7.02336C11.2626 7.12827 11.9176 7.45792 12.4233 7.96362C12.929 8.46932 13.2586 9.12426 13.3635 9.8317Z" stroke="#2563EB" stroke-width="1.66667" stroke-linecap="round" stroke-linejoin="round"/>
<path d="M14.6138 5.77344H14.6221" stroke="#2563EB" stroke-width="1.66667" stroke-linecap="round" stroke-linejoin="round"/>
</svg>
