<svg width="57" height="23" viewBox="0 0 57 23" fill="none" xmlns="http://www.w3.org/2000/svg">
<path d="M1.11085 22.3564V19.0326L8.87718 11.8415C9.5377 11.2023 10.0917 10.627 10.5391 10.1157C10.9937 9.60431 11.3381 9.1036 11.5725 8.61355C11.8069 8.11639 11.9241 7.58017 11.9241 7.00488C11.9241 6.36568 11.7785 5.81525 11.4873 5.3536C11.1961 4.88485 10.7983 4.52619 10.2941 4.27761C9.78983 4.02193 9.21809 3.89409 8.57889 3.89409C7.91127 3.89409 7.32889 4.02903 6.83173 4.29892C6.33457 4.5688 5.95105 4.95588 5.68116 5.46014C5.41127 5.9644 5.27633 6.56454 5.27633 7.26056H0.89778C0.89778 5.83301 1.22093 4.59366 1.86724 3.54252C2.51355 2.49139 3.41909 1.67818 4.58386 1.10289C5.74863 0.527609 7.09096 0.239967 8.61085 0.239967C10.1733 0.239967 11.5334 0.516956 12.6911 1.07093C13.8559 1.61781 14.7614 2.37775 15.4077 3.35076C16.054 4.32377 16.3772 5.43883 16.3772 6.69593C16.3772 7.5198 16.2138 8.33301 15.8871 9.13556C15.5675 9.93812 14.9958 10.8295 14.1719 11.8096C13.3481 12.7826 12.1868 13.9509 10.6883 15.3145L7.50289 18.436V18.5851H16.6648V22.3564H1.11085ZM28.562 22.8358C26.7296 22.8287 25.1529 22.3778 23.8319 21.4829C22.518 20.588 21.5059 19.2918 20.7957 17.5944C20.0926 15.8969 19.7445 13.855 19.7517 11.4687C19.7517 9.0894 20.1032 7.0617 20.8063 5.38556C21.5166 3.70943 22.5286 2.43457 23.8426 1.56099C25.1636 0.680308 26.7367 0.239967 28.562 0.239967C30.3873 0.239967 31.9569 0.680308 33.2708 1.56099C34.5919 2.44167 35.6075 3.72008 36.3177 5.39622C37.0279 7.06525 37.3795 9.0894 37.3724 11.4687C37.3724 13.8621 37.0173 15.9076 36.307 17.605C35.6039 19.3025 34.5954 20.5986 33.2815 21.4935C31.9676 22.3884 30.3944 22.8358 28.562 22.8358ZM28.562 19.0113C29.812 19.0113 30.8099 18.3827 31.5556 17.1256C32.3014 15.8685 32.6707 13.9829 32.6636 11.4687C32.6636 9.81383 32.4931 8.43599 32.1522 7.33514C31.8184 6.23429 31.3426 5.40687 30.7247 4.85289C30.1139 4.29892 29.393 4.02193 28.562 4.02193C27.3191 4.02193 26.3248 4.64338 25.5791 5.88627C24.8333 7.12917 24.4569 8.98997 24.4498 11.4687C24.4498 13.1448 24.6167 14.5439 24.9505 15.6661C25.2914 16.7812 25.7708 17.6192 26.3887 18.1803C27.0066 18.7343 27.7311 19.0113 28.562 19.0113ZM47.1815 19.0326V3.94735H50.9954V19.0326H47.1815ZM41.5459 13.3969V9.58301H56.6311V13.3969H41.5459Z" fill="#2563EB"/>
</svg>
