<svg width="56" height="23" viewBox="0 0 56 23" fill="none" xmlns="http://www.w3.org/2000/svg">
<path d="M0.843814 22.3564V19.0326L8.61015 11.8415C9.27066 11.2023 9.82464 10.627 10.2721 10.1157C10.7266 9.60431 11.0711 9.1036 11.3055 8.61355C11.5398 8.11639 11.657 7.58017 11.657 7.00488C11.657 6.36568 11.5114 5.81525 11.2202 5.3536C10.929 4.88485 10.5313 4.52619 10.0271 4.27761C9.52279 4.02193 8.95106 3.89409 8.31185 3.89409C7.64424 3.89409 7.06185 4.02903 6.56469 4.29892C6.06754 4.5688 5.68401 4.95588 5.41413 5.46014C5.14424 5.9644 5.0093 6.56454 5.0093 7.26056H0.630746C0.630746 5.83301 0.953899 4.59366 1.60021 3.54252C2.24651 2.49139 3.15205 1.67818 4.31683 1.10289C5.4816 0.527609 6.82393 0.239967 8.34381 0.239967C9.90631 0.239967 11.2664 0.516956 12.4241 1.07093C13.5888 1.61781 14.4944 2.37775 15.1407 3.35076C15.787 4.32377 16.1102 5.43883 16.1102 6.69593C16.1102 7.5198 15.9468 8.33301 15.6201 9.13556C15.3005 9.93812 14.7288 10.8295 13.9049 11.8096C13.081 12.7826 11.9198 13.9509 10.4212 15.3145L7.23586 18.436V18.5851H16.3978V22.3564H0.843814ZM27.709 22.6547C26.2034 22.6547 24.861 22.3778 23.6821 21.8238C22.5102 21.2698 21.5798 20.5063 20.8909 19.5333C20.2019 18.5603 19.8433 17.4452 19.8149 16.1881H24.2893C24.339 17.0333 24.6941 17.7187 25.3546 18.2442C26.0152 18.7698 26.8 19.0326 27.709 19.0326C28.4335 19.0326 29.0727 18.8728 29.6267 18.5532C30.1877 18.2265 30.6245 17.7755 30.937 17.2002C31.2566 16.6178 31.4164 15.9502 31.4164 15.1974C31.4164 14.4303 31.2531 13.7556 30.9264 13.1732C30.6068 12.5908 30.1629 12.1363 29.5947 11.8096C29.0265 11.4829 28.3767 11.316 27.6451 11.3089C27.0059 11.3089 26.3845 11.4403 25.7808 11.703C25.1842 11.9658 24.719 12.3245 24.3852 12.779L20.2836 12.0439L21.317 0.538263H34.6551V4.30957H25.1203L24.5556 9.77477H24.6835C25.067 9.235 25.6458 8.78755 26.42 8.43244C27.1941 8.07733 28.0606 7.89977 29.0194 7.89977C30.3333 7.89977 31.5052 8.20872 32.535 8.82662C33.5649 9.44451 34.3781 10.2932 34.9747 11.3728C35.5713 12.4452 35.866 13.681 35.8589 15.0802C35.866 16.5503 35.5251 17.8572 34.8362 19.0006C34.1544 20.137 33.1991 21.0319 31.9704 21.6853C30.7488 22.3316 29.3284 22.6547 27.709 22.6547ZM45.5961 19.0326V3.94735H49.41V19.0326H45.5961ZM39.9605 13.3969V9.58301H55.0457V13.3969H39.9605Z" fill="#2563EB"/>
</svg>
