<svg width="156" height="41" viewBox="0 0 156 41" fill="none" xmlns="http://www.w3.org/2000/svg">
<rect x="1.17041" y="0.856445" width="153.36" height="39" rx="19.5" fill="white"/>
<rect x="1.17041" y="0.856445" width="153.36" height="39" rx="19.5" stroke="#E2E8F0"/>
<path d="M27.441 18.4857H25.8899C25.8302 18.1543 25.7192 17.8626 25.5568 17.6107C25.3944 17.3588 25.1955 17.145 24.9602 16.9694C24.7249 16.7937 24.4614 16.6611 24.1697 16.5716C23.8814 16.4822 23.5748 16.4374 23.25 16.4374C22.6633 16.4374 22.138 16.5849 21.674 16.8799C21.2133 17.1749 20.8487 17.6074 20.5802 18.1775C20.3151 18.7475 20.1825 19.4436 20.1825 20.2655C20.1825 21.0941 20.3151 21.7935 20.5802 22.3635C20.8487 22.9336 21.2149 23.3645 21.6789 23.6562C22.143 23.9478 22.665 24.0937 23.245 24.0937C23.5665 24.0937 23.8714 24.0506 24.1598 23.9644C24.4514 23.8749 24.7149 23.744 24.9502 23.5716C25.1856 23.3993 25.3844 23.1888 25.5468 22.9403C25.7126 22.6884 25.8269 22.4 25.8899 22.0752L27.441 22.0802C27.3582 22.5806 27.1974 23.0413 26.9588 23.4623C26.7234 23.8799 26.4202 24.2412 26.049 24.5461C25.6811 24.8477 25.2601 25.0814 24.7862 25.2471C24.3122 25.4128 23.7952 25.4956 23.235 25.4956C22.3534 25.4956 21.5679 25.2868 20.8785 24.8692C20.1891 24.4483 19.6456 23.8467 19.2478 23.0645C18.8534 22.2823 18.6562 21.3493 18.6562 20.2655C18.6562 19.1784 18.8551 18.2454 19.2528 17.4665C19.6505 16.6843 20.1941 16.0844 20.8835 15.6668C21.5729 15.2459 22.3567 15.0354 23.235 15.0354C23.7753 15.0354 24.2791 15.1133 24.7464 15.2691C25.2171 15.4215 25.6396 15.6469 26.0142 15.9452C26.3887 16.2402 26.6986 16.6015 26.9439 17.029C27.1891 17.4533 27.3548 17.9388 27.441 18.4857ZM33.4455 23.517L35.9114 17.7201H37.194L33.9973 25.3564H32.8936L29.7615 17.7201H31.0293L33.4455 23.517ZM30.6166 17.7201V25.3564H29.1599V17.7201H30.6166ZM36.3141 25.3564V17.7201H37.7608V25.3564H36.3141ZM42.9586 25.5106C42.2427 25.5106 41.6179 25.3465 41.0843 25.0184C40.5507 24.6903 40.1364 24.2312 39.8414 23.6412C39.5464 23.0513 39.3989 22.3619 39.3989 21.5731C39.3989 20.7809 39.5464 20.0882 39.8414 19.4949C40.1364 18.9017 40.5507 18.441 41.0843 18.1128C41.6179 17.7847 42.2427 17.6206 42.9586 17.6206C43.6745 17.6206 44.2993 17.7847 44.8329 18.1128C45.3665 18.441 45.7808 18.9017 46.0758 19.4949C46.3708 20.0882 46.5183 20.7809 46.5183 21.5731C46.5183 22.3619 46.3708 23.0513 46.0758 23.6412C45.7808 24.2312 45.3665 24.6903 44.8329 25.0184C44.2993 25.3465 43.6745 25.5106 42.9586 25.5106ZM42.9636 24.2627C43.4276 24.2627 43.812 24.1401 44.117 23.8948C44.4219 23.6495 44.6473 23.3231 44.7931 22.9154C44.9423 22.5077 45.0168 22.0586 45.0168 21.5681C45.0168 21.0809 44.9423 20.6334 44.7931 20.2258C44.6473 19.8148 44.4219 19.485 44.117 19.2364C43.812 18.9878 43.4276 18.8635 42.9636 18.8635C42.4962 18.8635 42.1085 18.9878 41.8002 19.2364C41.4953 19.485 41.2683 19.8148 41.1191 20.2258C40.9733 20.6334 40.9004 21.0809 40.9004 21.5681C40.9004 22.0586 40.9733 22.5077 41.1191 22.9154C41.2683 23.3231 41.4953 23.6495 41.8002 23.8948C42.1085 24.1401 42.4962 24.2627 42.9636 24.2627ZM47.2578 19.0028V17.7201H53.701V19.0028H51.2102V25.3564H49.7585V19.0028H47.2578ZM55.2732 28.2201V17.7201H56.7249V18.958H56.8492C56.9354 18.7989 57.0597 18.615 57.2221 18.4062C57.3845 18.1974 57.6099 18.0151 57.8982 17.8593C58.1866 17.7002 58.5677 17.6206 59.0417 17.6206C59.6582 17.6206 60.2084 17.7764 60.6923 18.088C61.1762 18.3995 61.5557 18.8486 61.8308 19.4353C62.1092 20.0219 62.2484 20.7279 62.2484 21.5532C62.2484 22.3785 62.1108 23.0861 61.8357 23.676C61.5606 24.2627 61.1828 24.7151 60.7022 25.0333C60.2216 25.3482 59.6731 25.5056 59.0566 25.5056C58.5926 25.5056 58.2131 25.4277 57.9181 25.2719C57.6264 25.1162 57.3977 24.9339 57.232 24.7251C57.0663 24.5162 56.9387 24.3306 56.8492 24.1682H56.7597V28.2201H55.2732ZM56.7299 21.5383C56.7299 22.0752 56.8078 22.5458 56.9636 22.9502C57.1193 23.3546 57.3447 23.6711 57.6397 23.8998C57.9347 24.1251 58.296 24.2378 58.7235 24.2378C59.1676 24.2378 59.5388 24.1202 59.8371 23.8849C60.1354 23.6462 60.3608 23.3231 60.5133 22.9154C60.6691 22.5077 60.7469 22.0487 60.7469 21.5383C60.7469 21.0345 60.6707 20.5821 60.5183 20.181C60.3691 19.78 60.1437 19.4635 59.8421 19.2314C59.5438 18.9994 59.171 18.8834 58.7235 18.8834C58.2926 18.8834 57.9281 18.9945 57.6298 19.2165C57.3348 19.4386 57.1111 19.7485 56.9586 20.1462C56.8061 20.5439 56.7299 21.008 56.7299 21.5383ZM67.205 25.5106C66.4527 25.5106 65.8047 25.3498 65.2611 25.0283C64.7209 24.7035 64.3033 24.2478 64.0083 23.6611C63.7166 23.0712 63.5708 22.3801 63.5708 21.588C63.5708 20.8058 63.7166 20.1164 64.0083 19.5198C64.3033 18.9232 64.7143 18.4575 65.2413 18.1228C65.7716 17.788 66.3914 17.6206 67.1006 17.6206C67.5315 17.6206 67.9491 17.6919 68.3535 17.8344C68.7578 17.9769 69.1208 18.2007 69.4423 18.5056C69.7638 18.8105 70.0173 19.2066 70.2029 19.6938C70.3885 20.1777 70.4813 20.766 70.4813 21.4587V21.9857H64.411V20.8721H69.0246C69.0246 20.481 68.9451 20.1346 68.786 19.833C68.6269 19.5281 68.4032 19.2878 68.1148 19.1121C67.8298 18.9365 67.4951 18.8486 67.1106 18.8486C66.693 18.8486 66.3284 18.9514 66.0168 19.1569C65.7086 19.359 65.47 19.6242 65.3009 19.9523C65.1352 20.2771 65.0523 20.6301 65.0523 21.0113V21.8813C65.0523 22.3917 65.1418 22.8259 65.3208 23.1839C65.5031 23.5418 65.7567 23.8153 66.0815 24.0042C66.4063 24.1898 66.7858 24.2826 67.22 24.2826C67.5017 24.2826 67.7585 24.2428 67.9906 24.1633C68.2226 24.0804 68.4231 23.9578 68.5921 23.7954C68.7611 23.633 68.8904 23.4324 68.9799 23.1938L70.3869 23.4474C70.2742 23.8617 70.072 24.2246 69.7803 24.5361C69.492 24.8444 69.129 25.0847 68.6915 25.257C68.2574 25.426 67.7619 25.5106 67.205 25.5106ZM71.457 19.0028V17.7201H77.9002V19.0028H75.4094V25.3564H73.9577V19.0028H71.457ZM80.591 20.3451H82.8084C83.743 20.3451 84.4623 20.5771 84.9661 21.0411C85.4698 21.5051 85.7217 22.1034 85.7217 22.8358C85.7217 23.3131 85.609 23.7423 85.3837 24.1235C85.1583 24.5046 84.8285 24.8063 84.3943 25.0283C83.9601 25.2471 83.4315 25.3564 82.8084 25.3564H79.4724V17.7201H80.9291V24.0738H82.8084C83.2359 24.0738 83.5873 23.9627 83.8624 23.7407C84.1375 23.5153 84.275 23.2286 84.275 22.8806C84.275 22.5127 84.1375 22.2127 83.8624 21.9807C83.5873 21.7454 83.2359 21.6278 82.8084 21.6278H80.591V20.3451ZM91.0935 25.3564V17.7201H94.2604C95.1222 17.7201 95.8049 17.904 96.3087 18.2719C96.8125 18.6365 97.0644 19.132 97.0644 19.7584C97.0644 20.2059 96.9219 20.5605 96.6369 20.8224C96.3518 21.0842 95.974 21.2599 95.5033 21.3493C95.8447 21.3891 96.1579 21.4919 96.443 21.6576C96.728 21.82 96.9567 22.0387 97.129 22.3138C97.3047 22.5889 97.3925 22.9171 97.3925 23.2982C97.3925 23.7026 97.2881 24.0605 97.0793 24.3721C96.8705 24.6803 96.5673 24.9223 96.1695 25.0979C95.7751 25.2703 95.2995 25.3564 94.7427 25.3564H91.0935ZM92.4906 24.1135H94.7427C95.1106 24.1135 95.3989 24.0257 95.6077 23.8501C95.8165 23.6744 95.921 23.4358 95.921 23.1341C95.921 22.7795 95.8165 22.5011 95.6077 22.2989C95.3989 22.0934 95.1106 21.9907 94.7427 21.9907H92.4906V24.1135ZM92.4906 20.9019H94.2754C94.5538 20.9019 94.7924 20.8621 94.9913 20.7826C95.1934 20.703 95.3476 20.5903 95.4536 20.4445C95.563 20.2954 95.6177 20.1197 95.6177 19.9175C95.6177 19.6225 95.4967 19.3922 95.2548 19.2265C95.0128 19.0608 94.6814 18.9779 94.2604 18.9779H92.4906V20.9019ZM102.24 25.5106C101.501 25.5106 100.864 25.3432 100.331 25.0084C99.8004 24.6704 99.3928 24.2047 99.1077 23.6114C98.8227 23.0181 98.6802 22.3387 98.6802 21.5731C98.6802 20.7975 98.826 20.1131 99.1177 19.5198C99.4094 18.9232 99.8203 18.4575 100.351 18.1228C100.881 17.788 101.506 17.6206 102.225 17.6206C102.805 17.6206 103.322 17.7284 103.776 17.9438C104.23 18.1559 104.596 18.4542 104.875 18.8387C105.157 19.2232 105.324 19.6723 105.377 20.186H103.93C103.851 19.828 103.668 19.5198 103.383 19.2613C103.102 19.0028 102.724 18.8735 102.25 18.8735C101.835 18.8735 101.473 18.9829 101.161 19.2016C100.853 19.4171 100.612 19.7253 100.44 20.1263C100.268 20.5241 100.182 20.9947 100.182 21.5383C100.182 22.0951 100.266 22.5757 100.435 22.98C100.604 23.3844 100.843 23.6976 101.151 23.9197C101.463 24.1417 101.829 24.2528 102.25 24.2528C102.532 24.2528 102.787 24.2014 103.015 24.0986C103.247 23.9926 103.441 23.8418 103.597 23.6462C103.756 23.4507 103.867 23.2153 103.93 22.9403H105.377C105.324 23.4341 105.163 23.8749 104.895 24.2627C104.626 24.6505 104.267 24.9554 103.816 25.1775C103.368 25.3995 102.843 25.5106 102.24 25.5106ZM110.258 25.5106C109.505 25.5106 108.857 25.3498 108.314 25.0283C107.774 24.7035 107.356 24.2478 107.061 23.6611C106.769 23.0712 106.624 22.3801 106.624 21.588C106.624 20.8058 106.769 20.1164 107.061 19.5198C107.356 18.9232 107.767 18.4575 108.294 18.1228C108.824 17.788 109.444 17.6206 110.153 17.6206C110.584 17.6206 111.002 17.6919 111.406 17.8344C111.811 17.9769 112.173 18.2007 112.495 18.5056C112.816 18.8105 113.07 19.2066 113.256 19.6938C113.441 20.1777 113.534 20.766 113.534 21.4587V21.9857H107.464V20.8721H112.077C112.077 20.481 111.998 20.1346 111.839 19.833C111.68 19.5281 111.456 19.2878 111.168 19.1121C110.883 18.9365 110.548 18.8486 110.163 18.8486C109.746 18.8486 109.381 18.9514 109.07 19.1569C108.761 19.359 108.523 19.6242 108.354 19.9523C108.188 20.2771 108.105 20.6301 108.105 21.0113V21.8813C108.105 22.3917 108.195 22.8259 108.374 23.1839C108.556 23.5418 108.809 23.8153 109.134 24.0042C109.459 24.1898 109.839 24.2826 110.273 24.2826C110.554 24.2826 110.811 24.2428 111.043 24.1633C111.275 24.0804 111.476 23.9578 111.645 23.7954C111.814 23.633 111.943 23.4324 112.033 23.1938L113.44 23.4474C113.327 23.8617 113.125 24.2246 112.833 24.5361C112.545 24.8444 112.182 25.0847 111.744 25.257C111.31 25.426 110.815 25.5106 110.258 25.5106Z" fill="#020817"/>
<path d="M125.364 20.3564H134.697" stroke="#020817" stroke-width="1.33333" stroke-linecap="round" stroke-linejoin="round"/>
<path d="M130.03 15.6899L134.697 20.3566L130.03 25.0233" stroke="#020817" stroke-width="1.33333" stroke-linecap="round" stroke-linejoin="round"/>
</svg>
