<svg width="57" height="23" viewBox="0 0 57 23" fill="none" xmlns="http://www.w3.org/2000/svg">
<path d="M8.21821 22.6547C6.71252 22.6547 5.37019 22.3778 4.19122 21.8238C3.01934 21.2698 2.08894 20.5063 1.40002 19.5333C0.711103 18.5603 0.352438 17.4452 0.324029 16.1881H4.79846C4.84818 17.0333 5.20329 17.7187 5.8638 18.2442C6.52431 18.7698 7.30911 19.0326 8.21821 19.0326C8.94264 19.0326 9.58184 18.8728 10.1358 18.5532C10.6969 18.2265 11.1337 17.7755 11.4462 17.2002C11.7658 16.6178 11.9256 15.9502 11.9256 15.1974C11.9256 14.4303 11.7622 13.7556 11.4355 13.1732C11.1159 12.5908 10.672 12.1363 10.1039 11.8096C9.53568 11.4829 8.88582 11.316 8.15429 11.3089C7.51508 11.3089 6.89363 11.4403 6.28994 11.703C5.69335 11.9658 5.22815 12.3245 4.89434 12.779L0.792779 12.0439L1.82616 0.538263H15.1642V4.30957H5.62943L5.0648 9.77477H5.19264C5.57616 9.235 6.155 8.78755 6.92914 8.43244C7.70329 8.07733 8.56977 7.89977 9.52857 7.89977C10.8425 7.89977 12.0144 8.20872 13.0442 8.82662C14.074 9.44451 14.8872 10.2932 15.4838 11.3728C16.0804 12.4452 16.3752 13.681 16.3681 15.0802C16.3752 16.5503 16.0343 17.8572 15.3453 19.0006C14.6635 20.137 13.7083 21.0319 12.4796 21.6853C11.258 22.3316 9.83752 22.6547 8.21821 22.6547ZM28.1401 22.8358C26.3077 22.8287 24.731 22.3778 23.41 21.4829C22.096 20.588 21.084 19.2918 20.3737 17.5944C19.6706 15.8969 19.3226 13.855 19.3297 11.4687C19.3297 9.0894 19.6813 7.0617 20.3844 5.38556C21.0946 3.70943 22.1067 2.43457 23.4206 1.56099C24.7416 0.680308 26.3148 0.239967 28.1401 0.239967C29.9654 0.239967 31.535 0.680308 32.8489 1.56099C34.1699 2.44167 35.1855 3.72008 35.8958 5.39622C36.606 7.06525 36.9576 9.0894 36.9505 11.4687C36.9505 13.8621 36.5953 15.9076 35.8851 17.605C35.182 19.3025 34.1735 20.5986 32.8595 21.4935C31.5456 22.3884 29.9725 22.8358 28.1401 22.8358ZM28.1401 19.0113C29.3901 19.0113 30.388 18.3827 31.1337 17.1256C31.8794 15.8685 32.2487 13.9829 32.2416 11.4687C32.2416 9.81383 32.0712 8.43599 31.7303 7.33514C31.3965 6.23429 30.9206 5.40687 30.3027 4.85289C29.6919 4.29892 28.971 4.02193 28.1401 4.02193C26.8972 4.02193 25.9029 4.64338 25.1571 5.88627C24.4114 7.12917 24.035 8.98997 24.0279 11.4687C24.0279 13.1448 24.1948 14.5439 24.5286 15.6661C24.8695 16.7812 25.3489 17.6192 25.9668 18.1803C26.5847 18.7343 27.3091 19.0113 28.1401 19.0113ZM46.7596 19.0326V3.94735H50.5735V19.0326H46.7596ZM41.1239 13.3969V9.58301H56.2091V13.3969H41.1239Z" fill="#2563EB"/>
</svg>
