<svg width="212" height="45" viewBox="0 0 212 45" fill="none" xmlns="http://www.w3.org/2000/svg">
<rect x="0.0302734" y="0.356445" width="211.19" height="44" rx="22" fill="#2563EB"/>
<path d="M42.105 20.4857H40.5539C40.4942 20.1543 40.3832 19.8626 40.2208 19.6107C40.0584 19.3588 39.8595 19.145 39.6242 18.9694C39.3889 18.7937 39.1254 18.6611 38.8337 18.5716C38.5453 18.4822 38.2388 18.4374 37.914 18.4374C37.3273 18.4374 36.802 18.5849 36.338 18.8799C35.8773 19.1749 35.5127 19.6074 35.2442 20.1775C34.9791 20.7475 34.8465 21.4436 34.8465 22.2655C34.8465 23.0941 34.9791 23.7935 35.2442 24.3635C35.5127 24.9336 35.8789 25.3645 36.3429 25.6562C36.8069 25.9478 37.329 26.0937 37.909 26.0937C38.2305 26.0937 38.5354 26.0506 38.8238 25.9644C39.1154 25.8749 39.3789 25.744 39.6142 25.5716C39.8496 25.3993 40.0484 25.1888 40.2108 24.9403C40.3765 24.6884 40.4909 24.4 40.5539 24.0752L42.105 24.0802C42.0221 24.5806 41.8614 25.0413 41.6228 25.4623C41.3874 25.8799 41.0842 26.2412 40.713 26.5461C40.3451 26.8477 39.9241 27.0814 39.4502 27.2471C38.9762 27.4128 38.4592 27.4956 37.899 27.4956C37.0174 27.4956 36.2319 27.2868 35.5425 26.8692C34.8531 26.4483 34.3095 25.8467 33.9118 25.0645C33.5174 24.2823 33.3202 23.3493 33.3202 22.2655C33.3202 21.1784 33.5191 20.2454 33.9168 19.4665C34.3145 18.6843 34.8581 18.0844 35.5475 17.6668C36.2369 17.2459 37.0207 17.0354 37.899 17.0354C38.4393 17.0354 38.9431 17.1133 39.4104 17.2691C39.881 17.4215 40.3036 17.6469 40.6782 17.9452C41.0527 18.2402 41.3626 18.6015 41.6078 19.029C41.8531 19.4533 42.0188 19.9388 42.105 20.4857ZM43.8239 27.3564V19.7201H46.9908C47.8526 19.7201 48.5353 19.904 49.0391 20.2719C49.5429 20.6365 49.7948 21.132 49.7948 21.7584C49.7948 22.2059 49.6523 22.5605 49.3673 22.8224C49.0822 23.0842 48.7044 23.2599 48.2337 23.3493C48.5751 23.3891 48.8883 23.4919 49.1734 23.6576C49.4584 23.82 49.6871 24.0387 49.8594 24.3138C50.0351 24.5889 50.1229 24.9171 50.1229 25.2982C50.1229 25.7026 50.0185 26.0605 49.8097 26.3721C49.6009 26.6803 49.2977 26.9223 48.8999 27.0979C48.5055 27.2703 48.0299 27.3564 47.4731 27.3564H43.8239ZM45.2209 26.1135H47.4731C47.841 26.1135 48.1293 26.0257 48.3381 25.8501C48.5469 25.6744 48.6513 25.4358 48.6513 25.1341C48.6513 24.7795 48.5469 24.5011 48.3381 24.2989C48.1293 24.0934 47.841 23.9907 47.4731 23.9907H45.2209V26.1135ZM45.2209 22.9019H47.0058C47.2842 22.9019 47.5228 22.8621 47.7217 22.7826C47.9238 22.703 48.078 22.5903 48.184 22.4445C48.2934 22.2954 48.3481 22.1197 48.3481 21.9175C48.3481 21.6225 48.2271 21.3922 47.9852 21.2265C47.7432 21.0608 47.4118 20.9779 46.9908 20.9779H45.2209V22.9019ZM56.3076 27.3564V20.9878H54.4781C54.0439 20.9878 53.7058 21.0889 53.4638 21.2911C53.2219 21.4933 53.1009 21.7584 53.1009 22.0866C53.1009 22.4114 53.212 22.6732 53.434 22.8721C53.6594 23.0676 53.9743 23.1654 54.3786 23.1654H56.7401V24.3685H54.3786C53.8152 24.3685 53.328 24.2757 52.917 24.0901C52.5093 23.9012 52.1944 23.6344 51.9724 23.2897C51.7536 22.945 51.6442 22.5373 51.6442 22.0667C51.6442 21.5861 51.7569 21.1718 51.9823 20.8238C52.211 20.4724 52.5375 20.2007 52.9617 20.0084C53.3893 19.8162 53.8947 19.7201 54.4781 19.7201H57.7046V27.3564H56.3076ZM51.2962 27.3564L53.4489 23.4985H54.9702L52.8175 27.3564H51.2962ZM59.2309 25.338H60.7522C60.7721 25.6495 60.9129 25.8898 61.1748 26.0589C61.4399 26.2279 61.783 26.3124 62.2039 26.3124C62.6315 26.3124 62.996 26.2213 63.2977 26.039C63.5993 25.8534 63.7501 25.5667 63.7501 25.1789C63.7501 24.9469 63.6921 24.7447 63.5761 24.5724C63.4634 24.3967 63.3026 24.2608 63.0938 24.1647C62.8883 24.0686 62.6447 24.0205 62.363 24.0205H61.1201V22.8522H62.363C62.7839 22.8522 63.0988 22.7561 63.3076 22.5638C63.5164 22.3716 63.6208 22.1313 63.6208 21.843C63.6208 21.5314 63.5081 21.2812 63.2827 21.0922C63.0607 20.9 62.7508 20.8039 62.3531 20.8039C61.9487 20.8039 61.6123 20.895 61.3438 21.0773C61.0754 21.2563 60.9345 21.4883 60.9212 21.7733H59.4198C59.4298 21.3458 59.559 20.9713 59.8076 20.6498C60.0595 20.325 60.3976 20.0731 60.8218 19.8941C61.2494 19.7118 61.7349 19.6206 62.2785 19.6206C62.8452 19.6206 63.3358 19.7118 63.7501 19.8941C64.1644 20.0764 64.4842 20.3283 64.7096 20.6498C64.9383 20.9713 65.0526 21.3408 65.0526 21.7584C65.0526 22.1794 64.9267 22.5241 64.6748 22.7925C64.4262 23.0577 64.1014 23.2483 63.7004 23.3643V23.4438C63.9953 23.4637 64.2572 23.5532 64.4859 23.7123C64.7146 23.8714 64.8935 24.0818 65.0228 24.3437C65.1521 24.6055 65.2167 24.9021 65.2167 25.2336C65.2167 25.7009 65.0874 26.1053 64.8289 26.4466C64.5737 26.788 64.2191 27.0515 63.765 27.2371C63.3142 27.4194 62.7988 27.5106 62.2188 27.5106C61.6554 27.5106 61.1499 27.4227 60.7025 27.2471C60.2584 27.0681 59.9054 26.8162 59.6435 26.4914C59.385 26.1666 59.2475 25.7821 59.2309 25.338ZM68.974 27.5255C68.4901 27.5255 68.0526 27.436 67.6615 27.257C67.2704 27.0747 66.9605 26.8112 66.7318 26.4665C66.5064 26.1218 66.3937 25.6992 66.3937 25.1988C66.3937 24.7679 66.4766 24.4133 66.6423 24.1349C66.808 23.8564 67.0317 23.636 67.3135 23.4736C67.5952 23.3112 67.91 23.1886 68.2581 23.1057C68.6061 23.0229 68.9607 22.9599 69.322 22.9168C69.7794 22.8638 70.1506 22.8207 70.4356 22.7876C70.7207 22.7511 70.9278 22.6931 71.0571 22.6135C71.1863 22.534 71.251 22.4047 71.251 22.2258V22.191C71.251 21.7568 71.1283 21.4204 70.8831 21.1817C70.6411 20.9431 70.2798 20.8238 69.7993 20.8238C69.2988 20.8238 68.9044 20.9348 68.616 21.1569C68.331 21.3756 68.1338 21.6192 68.0244 21.8877L66.6274 21.5695C66.7931 21.1055 67.035 20.731 67.3532 20.4459C67.6747 20.1576 68.0443 19.9488 68.4619 19.8195C68.8795 19.6869 69.3187 19.6206 69.7794 19.6206C70.0843 19.6206 70.4074 19.6571 70.7488 19.73C71.0935 19.7996 71.415 19.9289 71.7133 20.1178C72.0149 20.3067 72.2618 20.5769 72.4541 20.9282C72.6463 21.2762 72.7424 21.7286 72.7424 22.2854V27.3564H71.2907V26.3124H71.2311C71.135 26.5046 70.9908 26.6936 70.7985 26.8792C70.6063 27.0648 70.3594 27.2189 70.0578 27.3415C69.7562 27.4642 69.3949 27.5255 68.974 27.5255ZM69.2971 26.3323C69.7081 26.3323 70.0594 26.2511 70.3511 26.0887C70.6461 25.9263 70.8698 25.7142 71.0223 25.4523C71.178 25.1872 71.2559 24.9038 71.2559 24.6022V23.6178C71.2029 23.6708 71.1002 23.7206 70.9477 23.767C70.7985 23.81 70.6279 23.8482 70.4356 23.8813C70.2434 23.9111 70.0561 23.9393 69.8738 23.9658C69.6915 23.989 69.5391 24.0089 69.4164 24.0255C69.1281 24.0619 68.8646 24.1233 68.626 24.2094C68.3906 24.2956 68.2017 24.4199 68.0592 24.5823C67.92 24.7414 67.8504 24.9535 67.8504 25.2187C67.8504 25.5866 67.9863 25.865 68.2581 26.0539C68.5298 26.2395 68.8762 26.3323 69.2971 26.3323ZM73.7753 21.0028V19.7201H80.2185V21.0028H77.7277V27.3564H76.276V21.0028H73.7753ZM82.9093 22.3451H85.1267C86.0613 22.3451 86.7805 22.5771 87.2843 23.0411C87.7881 23.5051 88.04 24.1034 88.04 24.8358C88.04 25.3131 87.9273 25.7423 87.702 26.1235C87.4766 26.5046 87.1468 26.8063 86.7126 27.0283C86.2784 27.2471 85.7498 27.3564 85.1267 27.3564H81.7907V19.7201H83.2474V26.0738H85.1267C85.5542 26.0738 85.9055 25.9627 86.1806 25.7407C86.4557 25.5153 86.5933 25.2286 86.5933 24.8806C86.5933 24.5127 86.4557 24.2127 86.1806 23.9807C85.9055 23.7454 85.5542 23.6278 85.1267 23.6278H82.9093V22.3451ZM92.9234 27.5106C92.1843 27.5106 91.5479 27.3432 91.0143 27.0084C90.484 26.6704 90.0763 26.2047 89.7913 25.6114C89.5062 25.0181 89.3637 24.3387 89.3637 23.5731C89.3637 22.7975 89.5095 22.1131 89.8012 21.5198C90.0929 20.9232 90.5039 20.4575 91.0342 20.1228C91.5645 19.788 92.1892 19.6206 92.9084 19.6206C93.4885 19.6206 94.0055 19.7284 94.4596 19.9438C94.9137 20.1559 95.2799 20.4542 95.5583 20.8387C95.84 21.2232 96.0074 21.6723 96.0604 22.186H94.6137C94.5342 21.828 94.3519 21.5198 94.0668 21.2613C93.7851 21.0028 93.4073 20.8735 92.9333 20.8735C92.519 20.8735 92.1561 20.9829 91.8445 21.2016C91.5363 21.4171 91.296 21.7253 91.1236 22.1263C90.9513 22.5241 90.8651 22.9947 90.8651 23.5383C90.8651 24.0951 90.9496 24.5757 91.1187 24.98C91.2877 25.3844 91.5263 25.6976 91.8346 25.9197C92.1461 26.1417 92.5124 26.2528 92.9333 26.2528C93.215 26.2528 93.4702 26.2014 93.6989 26.0986C93.9309 25.9926 94.1248 25.8418 94.2806 25.6462C94.4397 25.4507 94.5507 25.2153 94.6137 24.9403H96.0604C96.0074 25.4341 95.8467 25.8749 95.5782 26.2627C95.3097 26.6505 94.9501 26.9554 94.4994 27.1775C94.0519 27.3995 93.5266 27.5106 92.9234 27.5106ZM102.204 27.3564V20.9878H100.375C99.9404 20.9878 99.6023 21.0889 99.3603 21.2911C99.1184 21.4933 98.9974 21.7584 98.9974 22.0866C98.9974 22.4114 99.1084 22.6732 99.3305 22.8721C99.5559 23.0676 99.8708 23.1654 100.275 23.1654H102.637V24.3685H100.275C99.7117 24.3685 99.2244 24.2757 98.8135 24.0901C98.4058 23.9012 98.0909 23.6344 97.8689 23.2897C97.6501 22.945 97.5407 22.5373 97.5407 22.0667C97.5407 21.5861 97.6534 21.1718 97.8788 20.8238C98.1075 20.4724 98.434 20.2007 98.8582 20.0084C99.2858 19.8162 99.7912 19.7201 100.375 19.7201H103.601V27.3564H102.204ZM97.1927 27.3564L99.3454 23.4985H100.867L98.714 27.3564H97.1927ZM112.501 27.5106C111.762 27.5106 111.126 27.3432 110.592 27.0084C110.062 26.6704 109.654 26.2047 109.369 25.6114C109.084 25.0181 108.942 24.3387 108.942 23.5731C108.942 22.7975 109.088 22.1131 109.379 21.5198C109.671 20.9232 110.082 20.4575 110.612 20.1228C111.143 19.788 111.767 19.6206 112.487 19.6206C113.067 19.6206 113.584 19.7284 114.038 19.9438C114.492 20.1559 114.858 20.4542 115.136 20.8387C115.418 21.2232 115.586 21.6723 115.639 22.186H114.192C114.112 21.828 113.93 21.5198 113.645 21.2613C113.363 21.0028 112.985 20.8735 112.511 20.8735C112.097 20.8735 111.734 20.9829 111.423 21.2016C111.114 21.4171 110.874 21.7253 110.702 22.1263C110.529 22.5241 110.443 22.9947 110.443 23.5383C110.443 24.0951 110.528 24.5757 110.697 24.98C110.866 25.3844 111.104 25.6976 111.413 25.9197C111.724 26.1417 112.091 26.2528 112.511 26.2528C112.793 26.2528 113.048 26.2014 113.277 26.0986C113.509 25.9926 113.703 25.8418 113.859 25.6462C114.018 25.4507 114.129 25.2153 114.192 24.9403H115.639C115.586 25.4341 115.425 25.8749 115.156 26.2627C114.888 26.6505 114.528 26.9554 114.077 27.1775C113.63 27.3995 113.105 27.5106 112.501 27.5106ZM126.109 22.8969V24.1846H121.972V22.8969H126.109ZM122.39 19.7201V27.3564H120.933V19.7201H122.39ZM127.148 19.7201V27.3564H125.696V19.7201H127.148ZM131.359 27.5255C130.875 27.5255 130.437 27.436 130.046 27.257C129.655 27.0747 129.345 26.8112 129.117 26.4665C128.891 26.1218 128.778 25.6992 128.778 25.1988C128.778 24.7679 128.861 24.4133 129.027 24.1349C129.193 23.8564 129.417 23.636 129.698 23.4736C129.98 23.3112 130.295 23.1886 130.643 23.1057C130.991 23.0229 131.345 22.9599 131.707 22.9168C132.164 22.8638 132.535 22.8207 132.82 22.7876C133.105 22.7511 133.313 22.6931 133.442 22.6135C133.571 22.534 133.636 22.4047 133.636 22.2258V22.191C133.636 21.7568 133.513 21.4204 133.268 21.1817C133.026 20.9431 132.665 20.8238 132.184 20.8238C131.684 20.8238 131.289 20.9348 131.001 21.1569C130.716 21.3756 130.519 21.6192 130.409 21.8877L129.012 21.5695C129.178 21.1055 129.42 20.731 129.738 20.4459C130.059 20.1576 130.429 19.9488 130.847 19.8195C131.264 19.6869 131.703 19.6206 132.164 19.6206C132.469 19.6206 132.792 19.6571 133.134 19.73C133.478 19.7996 133.8 19.9289 134.098 20.1178C134.4 20.3067 134.647 20.5769 134.839 20.9282C135.031 21.2762 135.127 21.7286 135.127 22.2854V27.3564H133.675V26.3124H133.616C133.52 26.5046 133.376 26.6936 133.183 26.8792C132.991 27.0648 132.744 27.2189 132.443 27.3415C132.141 27.4642 131.78 27.5255 131.359 27.5255ZM131.682 26.3323C132.093 26.3323 132.444 26.2511 132.736 26.0887C133.031 25.9263 133.255 25.7142 133.407 25.4523C133.563 25.1872 133.641 24.9038 133.641 24.6022V23.6178C133.588 23.6708 133.485 23.7206 133.332 23.767C133.183 23.81 133.013 23.8482 132.82 23.8813C132.628 23.9111 132.441 23.9393 132.259 23.9658C132.076 23.989 131.924 24.0089 131.801 24.0255C131.513 24.0619 131.249 24.1233 131.011 24.2094C130.775 24.2956 130.586 24.4199 130.444 24.5823C130.305 24.7414 130.235 24.9535 130.235 25.2187C130.235 25.5866 130.371 25.865 130.643 26.0539C130.915 26.2395 131.261 26.3323 131.682 26.3323ZM141.393 25.517L143.859 19.7201H145.141L141.944 27.3564H140.841L137.709 19.7201H138.976L141.393 25.517ZM138.564 19.7201V27.3564H137.107V19.7201H138.564ZM144.261 27.3564V19.7201H145.708V27.3564H144.261ZM149.146 25.2733L152.512 19.7201H154.112V27.3564H152.656V21.7982L149.305 27.3564H147.689V19.7201H149.146V25.2733Z" fill="white"/>
<path d="M166.554 22.3564H175.887" stroke="white" stroke-width="1.33333" stroke-linecap="round" stroke-linejoin="round"/>
<path d="M171.22 17.6899L175.887 22.3566L171.22 27.0233" stroke="white" stroke-width="1.33333" stroke-linecap="round" stroke-linejoin="round"/>
</svg>
