<svg width="117" height="41" viewBox="0 0 117 41" fill="none" xmlns="http://www.w3.org/2000/svg">
<path d="M1.39127 15.1746H2.90761V18.5354C2.90761 19.0028 2.98881 19.3723 3.15122 19.6441C3.31362 19.9126 3.54894 20.1031 3.85718 20.2158C4.16873 20.3285 4.54657 20.3849 4.9907 20.3849C5.22603 20.3849 5.46466 20.3766 5.70661 20.36C5.95188 20.3401 6.19549 20.3136 6.43744 20.2805C6.67939 20.244 6.91305 20.2026 7.13843 20.1562C7.36712 20.1064 7.57925 20.0518 7.77479 19.9921V21.2996C7.58256 21.3626 7.37872 21.4189 7.16329 21.4687C6.95117 21.5151 6.7291 21.5565 6.4971 21.593C6.26509 21.6261 6.02314 21.6526 5.77124 21.6725C5.51935 21.6924 5.25917 21.7023 4.9907 21.7023C4.24828 21.7023 3.60694 21.5963 3.0667 21.3841C2.52977 21.1687 2.11547 20.829 1.8238 20.365C1.53545 19.901 1.39127 19.2911 1.39127 18.5354V15.1746ZM7.5461 15.1746H9.06741V25.3564H7.5461V15.1746ZM12.765 23.2733L16.1308 17.7201H17.7316V25.3564H16.275V19.7982L12.9241 25.3564H11.3084V17.7201H12.765V23.2733ZM18.7831 19.0028V17.7201H25.2263V19.0028H22.7356V25.3564H21.2838V19.0028H18.7831ZM28.6654 25.5255C28.1815 25.5255 27.744 25.436 27.3529 25.257C26.9618 25.0747 26.6519 24.8112 26.4232 24.4665C26.1979 24.1218 26.0852 23.6992 26.0852 23.1988C26.0852 22.7679 26.168 22.4133 26.3337 22.1349C26.4995 21.8564 26.7232 21.636 27.0049 21.4736C27.2866 21.3112 27.6015 21.1886 27.9495 21.1057C28.2975 21.0229 28.6522 20.9599 29.0134 20.9168C29.4708 20.8638 29.842 20.8207 30.1271 20.7876C30.4121 20.7511 30.6193 20.6931 30.7485 20.6135C30.8778 20.534 30.9424 20.4047 30.9424 20.2258V20.191C30.9424 19.7568 30.8198 19.4204 30.5745 19.1817C30.3326 18.9431 29.9713 18.8238 29.4907 18.8238C28.9902 18.8238 28.5958 18.9348 28.3075 19.1569C28.0224 19.3756 27.8252 19.6192 27.7158 19.8877L26.3188 19.5695C26.4845 19.1055 26.7265 18.731 27.0447 18.4459C27.3662 18.1576 27.7357 17.9488 28.1533 17.8195C28.571 17.6869 29.0101 17.6206 29.4708 17.6206C29.7757 17.6206 30.0989 17.6571 30.4403 17.73C30.785 17.7996 31.1065 17.9289 31.4048 18.1178C31.7064 18.3067 31.9533 18.5769 32.1455 18.9282C32.3378 19.2762 32.4339 19.7286 32.4339 20.2854V25.3564H30.9822V24.3124H30.9225C30.8264 24.5046 30.6822 24.6936 30.49 24.8792C30.2978 25.0648 30.0508 25.2189 29.7492 25.3415C29.4476 25.4642 29.0863 25.5255 28.6654 25.5255ZM28.9886 24.3323C29.3996 24.3323 29.7509 24.2511 30.0426 24.0887C30.3375 23.9263 30.5613 23.7142 30.7137 23.4523C30.8695 23.1872 30.9474 22.9038 30.9474 22.6022V21.6178C30.8943 21.6708 30.7916 21.7206 30.6391 21.767C30.49 21.81 30.3193 21.8482 30.1271 21.8813C29.9348 21.9111 29.7476 21.9393 29.5653 21.9658C29.383 21.989 29.2305 22.0089 29.1079 22.0255C28.8195 22.0619 28.556 22.1233 28.3174 22.2094C28.0821 22.2956 27.8932 22.4199 27.7506 22.5823C27.6114 22.7414 27.5418 22.9535 27.5418 23.2187C27.5418 23.5866 27.6777 23.865 27.9495 24.0539C28.2213 24.2395 28.5676 24.3323 28.9886 24.3323ZM33.4667 19.0028V17.7201H39.9099V19.0028H37.4191V25.3564H35.9674V19.0028H33.4667ZM42.6008 20.3451H44.8181C45.7528 20.3451 46.472 20.5771 46.9758 21.0411C47.4796 21.5051 47.7315 22.1034 47.7315 22.8358C47.7315 23.3131 47.6188 23.7423 47.3934 24.1235C47.168 24.5046 46.8382 24.8063 46.4041 25.0283C45.9699 25.2471 45.4412 25.3564 44.8181 25.3564H41.4822V17.7201H42.9389V24.0738H44.8181C45.2457 24.0738 45.597 23.9627 45.8721 23.7407C46.1472 23.5153 46.2847 23.2286 46.2847 22.8806C46.2847 22.5127 46.1472 22.2127 45.8721 21.9807C45.597 21.7454 45.2457 21.6278 44.8181 21.6278H42.6008V20.3451ZM52.3575 27.5589V24.0688H52.979C53.1381 23.923 53.2723 23.749 53.3817 23.5468C53.4944 23.3446 53.5888 23.1043 53.6651 22.8259C53.7446 22.5475 53.8109 22.2227 53.8639 21.8515C53.917 21.4769 53.9634 21.0494 54.0031 20.5688L54.2418 17.7201H59.4321V24.0688H60.6054V27.5589H59.1537V25.3564H53.8291V27.5589H52.3575ZM54.5699 24.0688H57.9804V18.9928H55.5742L55.4151 20.5688C55.3388 21.3709 55.2427 22.0669 55.1267 22.6569C55.0107 23.2435 54.8251 23.7142 54.5699 24.0688ZM64.2807 25.5255C63.7968 25.5255 63.3593 25.436 62.9682 25.257C62.5771 25.0747 62.2672 24.8112 62.0385 24.4665C61.8131 24.1218 61.7004 23.6992 61.7004 23.1988C61.7004 22.7679 61.7833 22.4133 61.949 22.1349C62.1147 21.8564 62.3384 21.636 62.6201 21.4736C62.9019 21.3112 63.2167 21.1886 63.5647 21.1057C63.9128 21.0229 64.2674 20.9599 64.6287 20.9168C65.0861 20.8638 65.4573 20.8207 65.7423 20.7876C66.0273 20.7511 66.2345 20.6931 66.3638 20.6135C66.493 20.534 66.5576 20.4047 66.5576 20.2258V20.191C66.5576 19.7568 66.435 19.4204 66.1897 19.1817C65.9478 18.9431 65.5865 18.8238 65.1059 18.8238C64.6055 18.8238 64.2111 18.9348 63.9227 19.1569C63.6377 19.3756 63.4405 19.6192 63.3311 19.8877L61.9341 19.5695C62.0998 19.1055 62.3417 18.731 62.6599 18.4459C62.9814 18.1576 63.351 17.9488 63.7686 17.8195C64.1862 17.6869 64.6254 17.6206 65.0861 17.6206C65.391 17.6206 65.7141 17.6571 66.0555 17.73C66.4002 17.7996 66.7217 17.9289 67.02 18.1178C67.3216 18.3067 67.5685 18.5769 67.7608 18.9282C67.953 19.2762 68.0491 19.7286 68.0491 20.2854V25.3564H66.5974V24.3124H66.5378C66.4416 24.5046 66.2975 24.6936 66.1052 24.8792C65.913 25.0648 65.6661 25.2189 65.3645 25.3415C65.0629 25.4642 64.7016 25.5255 64.2807 25.5255ZM64.6038 24.3323C65.0148 24.3323 65.3661 24.2511 65.6578 24.0887C65.9528 23.9263 66.1765 23.7142 66.3289 23.4523C66.4847 23.1872 66.5626 22.9038 66.5626 22.6022V21.6178C66.5096 21.6708 66.4068 21.7206 66.2544 21.767C66.1052 21.81 65.9345 21.8482 65.7423 21.8813C65.5501 21.9111 65.3628 21.9393 65.1805 21.9658C64.9982 21.989 64.8458 22.0089 64.7231 22.0255C64.4348 22.0619 64.1713 22.1233 63.9326 22.2094C63.6973 22.2956 63.5084 22.4199 63.3659 22.5823C63.2267 22.7414 63.1571 22.9535 63.1571 23.2187C63.1571 23.5866 63.293 23.865 63.5647 24.0539C63.8365 24.2395 64.1829 24.3323 64.6038 24.3323ZM69.4275 25.3564L69.4225 24.0688H69.696C69.9081 24.0688 70.0854 24.0241 70.2279 23.9346C70.3738 23.8418 70.4931 23.686 70.5859 23.4672C70.6787 23.2485 70.7499 22.9469 70.7997 22.5624C70.8494 22.1746 70.8858 21.6874 70.909 21.1008L71.0433 17.7201H76.3728V25.3564H74.9161V19.0028H72.4204L72.3011 21.5979C72.2712 22.2277 72.2066 22.7778 72.1072 23.2485C72.0111 23.7191 71.8702 24.1119 71.6846 24.4268C71.499 24.7383 71.2604 24.972 70.9687 25.1278C70.677 25.2802 70.3224 25.3564 69.9048 25.3564H69.4275ZM81.6464 25.5106C80.8941 25.5106 80.2461 25.3498 79.7025 25.0283C79.1623 24.7035 78.7447 24.2478 78.4497 23.6611C78.158 23.0712 78.0122 22.3801 78.0122 21.588C78.0122 20.8058 78.158 20.1164 78.4497 19.5198C78.7447 18.9232 79.1557 18.4575 79.6826 18.1228C80.2129 17.788 80.8327 17.6206 81.542 17.6206C81.9729 17.6206 82.3905 17.6919 82.7949 17.8344C83.1992 17.9769 83.5621 18.2007 83.8836 18.5056C84.2051 18.8105 84.4587 19.2066 84.6443 19.6938C84.8299 20.1777 84.9227 20.766 84.9227 21.4587V21.9857H78.8524V20.8721H83.466C83.466 20.481 83.3865 20.1346 83.2274 19.833C83.0683 19.5281 82.8446 19.2878 82.5562 19.1121C82.2712 18.9365 81.9364 18.8486 81.552 18.8486C81.1344 18.8486 80.7698 18.9514 80.4582 19.1569C80.15 19.359 79.9113 19.6242 79.7423 19.9523C79.5766 20.2771 79.4937 20.6301 79.4937 21.0113V21.8813C79.4937 22.3917 79.5832 22.8259 79.7622 23.1839C79.9445 23.5418 80.198 23.8153 80.5228 24.0042C80.8477 24.1898 81.2272 24.2826 81.6613 24.2826C81.9431 24.2826 82.1999 24.2428 82.4319 24.1633C82.6639 24.0804 82.8645 23.9578 83.0335 23.7954C83.2025 23.633 83.3318 23.4324 83.4213 23.1938L84.8282 23.4474C84.7156 23.8617 84.5134 24.2246 84.2217 24.5361C83.9334 24.8444 83.5704 25.0847 83.1329 25.257C82.6987 25.426 82.2032 25.5106 81.6464 25.5106ZM89.8632 25.5106C89.1109 25.5106 88.4629 25.3498 87.9193 25.0283C87.3791 24.7035 86.9615 24.2478 86.6665 23.6611C86.3748 23.0712 86.229 22.3801 86.229 21.588C86.229 20.8058 86.3748 20.1164 86.6665 19.5198C86.9615 18.9232 87.3725 18.4575 87.8994 18.1228C88.4297 17.788 89.0495 17.6206 89.7588 17.6206C90.1897 17.6206 90.6073 17.6919 91.0117 17.8344C91.416 17.9769 91.7789 18.2007 92.1004 18.5056C92.4219 18.8105 92.6755 19.2066 92.8611 19.6938C93.0467 20.1777 93.1395 20.766 93.1395 21.4587V21.9857H87.0692V20.8721H91.6828C91.6828 20.481 91.6033 20.1346 91.4442 19.833C91.2851 19.5281 91.0614 19.2878 90.773 19.1121C90.488 18.9365 90.1532 18.8486 89.7688 18.8486C89.3511 18.8486 88.9866 18.9514 88.675 19.1569C88.3668 19.359 88.1281 19.6242 87.9591 19.9523C87.7934 20.2771 87.7105 20.6301 87.7105 21.0113V21.8813C87.7105 22.3917 87.8 22.8259 87.979 23.1839C88.1613 23.5418 88.4148 23.8153 88.7396 24.0042C89.0645 24.1898 89.444 24.2826 89.8781 24.2826C90.1599 24.2826 90.4167 24.2428 90.6487 24.1633C90.8807 24.0804 91.0813 23.9578 91.2503 23.7954C91.4193 23.633 91.5486 23.4324 91.6381 23.1938L93.045 23.4474C92.9324 23.8617 92.7302 24.2246 92.4385 24.5361C92.1502 24.8444 91.7872 25.0847 91.3497 25.257C90.9155 25.426 90.42 25.5106 89.8632 25.5106Z" fill="#2563EB"/>
<path d="M104.244 20.3564H113.577" stroke="#2563EB" stroke-width="1.33333" stroke-linecap="round" stroke-linejoin="round"/>
<path d="M108.91 15.6899L113.577 20.3566L108.91 25.0233" stroke="#2563EB" stroke-width="1.33333" stroke-linecap="round" stroke-linejoin="round"/>
</svg>
