<svg width="77" height="23" viewBox="0 0 77 23" fill="none" xmlns="http://www.w3.org/2000/svg">
<path d="M8.07566 22.6547C6.56998 22.6547 5.22765 22.3778 4.04867 21.8238C2.8768 21.2698 1.9464 20.5063 1.25748 19.5333C0.568558 18.5603 0.209893 17.4452 0.181484 16.1881H4.65592C4.70563 17.0333 5.06075 17.7187 5.72126 18.2442C6.38177 18.7698 7.16657 19.0326 8.07566 19.0326C8.80009 19.0326 9.4393 18.8728 9.99327 18.5532C10.5544 18.2265 10.9911 17.7755 11.3036 17.2002C11.6232 16.6178 11.783 15.9502 11.783 15.1974C11.783 14.4303 11.6197 13.7556 11.293 13.1732C10.9734 12.5908 10.5295 12.1363 9.96131 11.8096C9.39313 11.4829 8.74327 11.316 8.01174 11.3089C7.37253 11.3089 6.75109 11.4403 6.14739 11.703C5.5508 11.9658 5.0856 12.3245 4.7518 12.779L0.650234 12.0439L1.68361 0.538263H15.0217V4.30957H5.48688L4.92225 9.77477H5.05009C5.43361 9.235 6.01245 8.78755 6.7866 8.43244C7.56075 8.07733 8.42722 7.89977 9.38603 7.89977C10.6999 7.89977 11.8718 8.20872 12.9017 8.82662C13.9315 9.44451 14.7447 10.2932 15.3413 11.3728C15.9379 12.4452 16.2326 13.681 16.2255 15.0802C16.2326 16.5503 15.8917 17.8572 15.2028 19.0006C14.521 20.137 13.5657 21.0319 12.337 21.6853C11.1154 22.3316 9.69498 22.6547 8.07566 22.6547ZM27.9975 22.8358C26.1651 22.8287 24.5884 22.3778 23.2674 21.4829C21.9535 20.588 20.9414 19.2918 20.2312 17.5944C19.5281 15.8969 19.1801 13.855 19.1872 11.4687C19.1872 9.0894 19.5387 7.0617 20.2419 5.38556C20.9521 3.70943 21.9642 2.43457 23.2781 1.56099C24.5991 0.680308 26.1723 0.239967 27.9975 0.239967C29.8228 0.239967 31.3924 0.680308 32.7063 1.56099C34.0274 2.44167 35.043 3.72008 35.7532 5.39622C36.4634 7.06525 36.815 9.0894 36.8079 11.4687C36.8079 13.8621 36.4528 15.9076 35.7426 17.605C35.0394 19.3025 34.0309 20.5986 32.717 21.4935C31.4031 22.3884 29.8299 22.8358 27.9975 22.8358ZM27.9975 19.0113C29.2475 19.0113 30.2454 18.3827 30.9911 17.1256C31.7369 15.8685 32.1062 13.9829 32.0991 11.4687C32.0991 9.81383 31.9286 8.43599 31.5877 7.33514C31.2539 6.23429 30.7781 5.40687 30.1602 4.85289C29.5494 4.29892 28.8285 4.02193 27.9975 4.02193C26.7546 4.02193 25.7603 4.64338 25.0146 5.88627C24.2688 7.12917 23.8924 8.98997 23.8853 11.4687C23.8853 13.1448 24.0522 14.5439 24.386 15.6661C24.7269 16.7812 25.2063 17.6192 25.8242 18.1803C26.4421 18.7343 27.1666 19.0113 27.9975 19.0113ZM48.6518 22.8358C46.8194 22.8287 45.2427 22.3778 43.9217 21.4829C42.6078 20.588 41.5957 19.2918 40.8855 17.5944C40.1824 15.8969 39.8344 13.855 39.8415 11.4687C39.8415 9.0894 40.193 7.0617 40.8961 5.38556C41.6064 3.70943 42.6185 2.43457 43.9324 1.56099C45.2534 0.680308 46.8265 0.239967 48.6518 0.239967C50.4771 0.239967 52.0467 0.680308 53.3606 1.56099C54.6817 2.44167 55.6973 3.72008 56.4075 5.39622C57.1177 7.06525 57.4693 9.0894 57.4622 11.4687C57.4622 13.8621 57.1071 15.9076 56.3969 17.605C55.6937 19.3025 54.6852 20.5986 53.3713 21.4935C52.0574 22.3884 50.4842 22.8358 48.6518 22.8358ZM48.6518 19.0113C49.9018 19.0113 50.8997 18.3827 51.6454 17.1256C52.3912 15.8685 52.7605 13.9829 52.7534 11.4687C52.7534 9.81383 52.5829 8.43599 52.242 7.33514C51.9082 6.23429 51.4324 5.40687 50.8145 4.85289C50.2037 4.29892 49.4828 4.02193 48.6518 4.02193C47.4089 4.02193 46.4146 4.64338 45.6689 5.88627C44.9231 7.12917 44.5467 8.98997 44.5396 11.4687C44.5396 13.1448 44.7065 14.5439 45.0403 15.6661C45.3812 16.7812 45.8606 17.6192 46.4785 18.1803C47.0964 18.7343 47.8209 19.0113 48.6518 19.0113ZM67.2713 19.0326V3.94735H71.0852V19.0326H67.2713ZM61.6357 13.3969V9.58301H76.7209V13.3969H61.6357Z" fill="#2563EB"/>
</svg>
