<svg width="169" height="45" viewBox="0 0 169 45" fill="none" xmlns="http://www.w3.org/2000/svg">
<rect x="0.530273" y="0.856445" width="167.77" height="43" rx="21.5" fill="white"/>
<rect x="0.530273" y="0.856445" width="167.77" height="43" rx="21.5" stroke="#D1D5DB"/>
<path d="M34.9402 27.4956V26.1434H35.5517C35.8069 26.1434 36.0174 26.1003 36.1831 26.0141C36.3521 25.9279 36.4897 25.8119 36.5957 25.6661C36.7051 25.517 36.7963 25.3546 36.8692 25.1789L37.0134 24.816L33.4338 17.1746H35.0645L37.7342 23.061L40.1107 17.1746H41.7215L38.2016 25.5915C38.0524 25.9296 37.8801 26.2428 37.6845 26.5312C37.4923 26.8195 37.2354 27.0532 36.9139 27.2322C36.5924 27.4078 36.1665 27.4956 35.6362 27.4956H34.9402ZM42.6027 25.338H44.124C44.1439 25.6495 44.2847 25.8898 44.5466 26.0589C44.8117 26.2279 45.1548 26.3124 45.5757 26.3124C46.0032 26.3124 46.3678 26.2213 46.6694 26.039C46.971 25.8534 47.1218 25.5667 47.1218 25.1789C47.1218 24.9469 47.0638 24.7447 46.9478 24.5724C46.8352 24.3967 46.6744 24.2608 46.4656 24.1647C46.2601 24.0686 46.0165 24.0205 45.7348 24.0205H44.4919V22.8522H45.7348C46.1557 22.8522 46.4706 22.7561 46.6794 22.5638C46.8882 22.3716 46.9926 22.1313 46.9926 21.843C46.9926 21.5314 46.8799 21.2812 46.6545 21.0922C46.4325 20.9 46.1226 20.8039 45.7248 20.8039C45.3205 20.8039 44.9841 20.895 44.7156 21.0773C44.4471 21.2563 44.3063 21.4883 44.293 21.7733H42.7916C42.8015 21.3458 42.9308 20.9713 43.1794 20.6498C43.4313 20.325 43.7693 20.0731 44.1936 19.8941C44.6211 19.7118 45.1067 19.6206 45.6503 19.6206C46.217 19.6206 46.7075 19.7118 47.1218 19.8941C47.5361 20.0764 47.856 20.3283 48.0814 20.6498C48.3101 20.9713 48.4244 21.3408 48.4244 21.7584C48.4244 22.1794 48.2985 22.5241 48.0466 22.7925C47.798 23.0577 47.4732 23.2483 47.0721 23.3643V23.4438C47.3671 23.4637 47.629 23.5532 47.8576 23.7123C48.0863 23.8714 48.2653 24.0818 48.3946 24.3437C48.5238 24.6055 48.5885 24.9021 48.5885 25.2336C48.5885 25.7009 48.4592 26.1053 48.2007 26.4466C47.9455 26.788 47.5908 27.0515 47.1368 27.2371C46.686 27.4194 46.1706 27.5106 45.5906 27.5106C45.0272 27.5106 44.5217 27.4227 44.0743 27.2471C43.6301 27.0681 43.2772 26.8162 43.0153 26.4914C42.7568 26.1666 42.6192 25.7821 42.6027 25.338ZM55.2989 22.8969V24.1846H51.1625V22.8969H55.2989ZM51.5801 19.7201V27.3564H50.1234V19.7201H51.5801ZM56.3379 19.7201V27.3564H54.8862V19.7201H56.3379ZM60.5489 27.5255C60.065 27.5255 59.6275 27.436 59.2364 27.257C58.8453 27.0747 58.5354 26.8112 58.3067 26.4665C58.0813 26.1218 57.9686 25.6992 57.9686 25.1988C57.9686 24.7679 58.0515 24.4133 58.2172 24.1349C58.3829 23.8564 58.6066 23.636 58.8884 23.4736C59.1701 23.3112 59.485 23.1886 59.833 23.1057C60.181 23.0229 60.5356 22.9599 60.8969 22.9168C61.3543 22.8638 61.7255 22.8207 62.0105 22.7876C62.2956 22.7511 62.5027 22.6931 62.632 22.6135C62.7612 22.534 62.8259 22.4047 62.8259 22.2258V22.191C62.8259 21.7568 62.7032 21.4204 62.458 21.1817C62.216 20.9431 61.8547 20.8238 61.3742 20.8238C60.8737 20.8238 60.4793 20.9348 60.1909 21.1569C59.9059 21.3756 59.7087 21.6192 59.5993 21.8877L58.2023 21.5695C58.368 21.1055 58.61 20.731 58.9281 20.4459C59.2496 20.1576 59.6192 19.9488 60.0368 19.8195C60.4544 19.6869 60.8936 19.6206 61.3543 19.6206C61.6592 19.6206 61.9823 19.6571 62.3237 19.73C62.6684 19.7996 62.9899 19.9289 63.2882 20.1178C63.5898 20.3067 63.8368 20.5769 64.029 20.9282C64.2212 21.2762 64.3173 21.7286 64.3173 22.2854V27.3564H62.8656V26.3124H62.806C62.7099 26.5046 62.5657 26.6936 62.3734 26.8792C62.1812 27.0648 61.9343 27.2189 61.6327 27.3415C61.3311 27.4642 60.9698 27.5255 60.5489 27.5255ZM60.872 26.3323C61.283 26.3323 61.6343 26.2511 61.926 26.0887C62.221 25.9263 62.4447 25.7142 62.5972 25.4523C62.7529 25.1872 62.8308 24.9038 62.8308 24.6022V23.6178C62.7778 23.6708 62.6751 23.7206 62.5226 23.767C62.3734 23.81 62.2028 23.8482 62.0105 23.8813C61.8183 23.9111 61.631 23.9393 61.4487 23.9658C61.2664 23.989 61.114 24.0089 60.9913 24.0255C60.703 24.0619 60.4395 24.1233 60.2009 24.2094C59.9655 24.2956 59.7766 24.4199 59.6341 24.5823C59.4949 24.7414 59.4253 24.9535 59.4253 25.2187C59.4253 25.5866 59.5612 25.865 59.833 26.0539C60.1047 26.2395 60.4511 26.3323 60.872 26.3323ZM65.3502 21.0028V19.7201H71.7934V21.0028H69.3026V27.3564H67.8509V21.0028H65.3502ZM74.4842 22.3451H76.7016C77.6362 22.3451 78.3555 22.5771 78.8592 23.0411C79.363 23.5051 79.6149 24.1034 79.6149 24.8358C79.6149 25.3131 79.5022 25.7423 79.2769 26.1235C79.0515 26.5046 78.7217 26.8063 78.2875 27.0283C77.8533 27.2471 77.3247 27.3564 76.7016 27.3564H73.3656V19.7201H74.8223V26.0738H76.7016C77.1291 26.0738 77.4805 25.9627 77.7555 25.7407C78.0306 25.5153 78.1682 25.2286 78.1682 24.8806C78.1682 24.5127 78.0306 24.2127 77.7555 23.9807C77.4805 23.7454 77.1291 23.6278 76.7016 23.6278H74.4842V22.3451ZM90.8781 16.8763L91.4945 17.816C91.2658 18.0248 91.0057 18.1739 90.714 18.2634C90.4256 18.3496 90.0926 18.4043 89.7147 18.4275C89.3369 18.4474 88.9043 18.4656 88.4171 18.4822C87.8669 18.4987 87.4145 18.618 87.0599 18.8401C86.7052 19.0589 86.4318 19.3837 86.2396 19.8145C86.0506 20.2421 85.928 20.779 85.8717 21.4253H85.9661C86.2147 20.9514 86.5594 20.5967 87.0002 20.3614C87.4444 20.1261 87.9432 20.0084 88.4967 20.0084C89.1131 20.0084 89.6617 20.1493 90.1423 20.431C90.6229 20.7127 91.0007 21.1254 91.2758 21.6689C91.5542 22.2092 91.6934 22.8704 91.6934 23.6526C91.6934 24.4448 91.5476 25.1292 91.2559 25.7059C90.9676 26.2826 90.5599 26.7284 90.0329 27.0432C89.5092 27.3548 88.8911 27.5106 88.1785 27.5106C87.4659 27.5106 86.8444 27.3498 86.3141 27.0283C85.7872 26.7035 85.3778 26.2229 85.0862 25.5866C84.7978 24.9502 84.6536 24.1647 84.6536 23.23V22.4743C84.6536 20.7277 84.9652 19.4135 85.5883 18.5319C86.2114 17.6502 87.1427 17.1978 88.3823 17.1746C88.7834 17.1647 89.1413 17.163 89.4562 17.1697C89.7711 17.173 90.0462 17.1581 90.2815 17.1249C90.5201 17.0885 90.719 17.0056 90.8781 16.8763ZM88.1835 26.2627C88.5978 26.2627 88.9541 26.1583 89.2524 25.9495C89.554 25.7374 89.786 25.4374 89.9484 25.0496C90.1108 24.6618 90.192 24.2045 90.192 23.6775C90.192 23.1604 90.1108 22.7213 89.9484 22.36C89.786 21.9987 89.554 21.7236 89.2524 21.5347C88.9507 21.3425 88.5895 21.2464 88.1685 21.2464C87.857 21.2464 87.5786 21.301 87.3333 21.4104C87.0881 21.5165 86.8776 21.6739 86.7019 21.8827C86.5296 22.0915 86.3953 22.3467 86.2992 22.6483C86.2064 22.9466 86.1567 23.2897 86.1501 23.6775C86.1501 24.4663 86.3307 25.0944 86.692 25.5617C87.0566 26.029 87.5537 26.2627 88.1835 26.2627ZM96.5705 27.5106C95.8546 27.5106 95.2299 27.3465 94.6962 27.0184C94.1626 26.6903 93.7483 26.2312 93.4533 25.6412C93.1584 25.0513 93.0109 24.3619 93.0109 23.5731C93.0109 22.7809 93.1584 22.0882 93.4533 21.4949C93.7483 20.9017 94.1626 20.441 94.6962 20.1128C95.2299 19.7847 95.8546 19.6206 96.5705 19.6206C97.2864 19.6206 97.9112 19.7847 98.4448 20.1128C98.9784 20.441 99.3927 20.9017 99.6877 21.4949C99.9827 22.0882 100.13 22.7809 100.13 23.5731C100.13 24.3619 99.9827 25.0513 99.6877 25.6412C99.3927 26.2312 98.9784 26.6903 98.4448 27.0184C97.9112 27.3465 97.2864 27.5106 96.5705 27.5106ZM96.5755 26.2627C97.0395 26.2627 97.424 26.1401 97.7289 25.8948C98.0338 25.6495 98.2592 25.3231 98.4051 24.9154C98.5542 24.5077 98.6288 24.0586 98.6288 23.5681C98.6288 23.0809 98.5542 22.6334 98.4051 22.2258C98.2592 21.8148 98.0338 21.485 97.7289 21.2364C97.424 20.9878 97.0395 20.8635 96.5755 20.8635C96.1082 20.8635 95.7204 20.9878 95.4122 21.2364C95.1072 21.485 94.8802 21.8148 94.731 22.2258C94.5852 22.6334 94.5123 23.0809 94.5123 23.5681C94.5123 24.0586 94.5852 24.5077 94.731 24.9154C94.8802 25.3231 95.1072 25.6495 95.4122 25.8948C95.7204 26.1401 96.1082 26.2627 96.5755 26.2627ZM101.188 27.3564L101.183 26.0688H101.456C101.668 26.0688 101.846 26.0241 101.988 25.9346C102.134 25.8418 102.253 25.686 102.346 25.4672C102.439 25.2485 102.51 24.9469 102.56 24.5624C102.61 24.1746 102.646 23.6874 102.669 23.1008L102.804 19.7201H108.133V27.3564H106.677V21.0028H104.181L104.061 23.5979C104.032 24.2277 103.967 24.7778 103.868 25.2485C103.771 25.7191 103.631 26.1119 103.445 26.4268C103.259 26.7383 103.021 26.972 102.729 27.1278C102.437 27.2802 102.083 27.3564 101.665 27.3564H101.188ZM111.234 22.3451H113.452C114.386 22.3451 115.105 22.5771 115.609 23.0411C116.113 23.5051 116.365 24.1034 116.365 24.8358C116.365 25.3131 116.252 25.7423 116.027 26.1235C115.801 26.5046 115.472 26.8063 115.038 27.0283C114.603 27.2471 114.075 27.3564 113.452 27.3564H110.116V19.7201H111.572V26.0738H113.452C113.879 26.0738 114.23 25.9627 114.506 25.7407C114.781 25.5153 114.918 25.2286 114.918 24.8806C114.918 24.5127 114.781 24.2127 114.506 23.9807C114.23 23.7454 113.879 23.6278 113.452 23.6278H111.234V22.3451ZM118.032 19.7201H119.488V26.0688H122.128V19.7201H123.585V26.0688H126.225V19.7201H127.682V27.3564H118.032V19.7201ZM132.958 27.5106C132.205 27.5106 131.557 27.3498 131.014 27.0283C130.473 26.7035 130.056 26.2478 129.761 25.6611C129.469 25.0712 129.323 24.3801 129.323 23.588C129.323 22.8058 129.469 22.1164 129.761 21.5198C130.056 20.9232 130.467 20.4575 130.994 20.1228C131.524 19.788 132.144 19.6206 132.853 19.6206C133.284 19.6206 133.702 19.6919 134.106 19.8344C134.51 19.9769 134.873 20.2007 135.195 20.5056C135.516 20.8105 135.77 21.2066 135.955 21.6938C136.141 22.1777 136.234 22.766 136.234 23.4587V23.9857H130.164V22.8721H134.777C134.777 22.481 134.698 22.1346 134.539 21.833C134.379 21.5281 134.156 21.2878 133.867 21.1121C133.582 20.9365 133.248 20.8486 132.863 20.8486C132.446 20.8486 132.081 20.9514 131.769 21.1569C131.461 21.359 131.223 21.6242 131.053 21.9523C130.888 22.2771 130.805 22.6301 130.805 23.0113V23.8813C130.805 24.3917 130.894 24.8259 131.073 25.1839C131.256 25.5418 131.509 25.8153 131.834 26.0042C132.159 26.1898 132.538 26.2826 132.973 26.2826C133.254 26.2826 133.511 26.2428 133.743 26.1633C133.975 26.0804 134.176 25.9578 134.345 25.7954C134.514 25.633 134.643 25.4324 134.732 25.1938L136.139 25.4474C136.027 25.8617 135.825 26.2246 135.533 26.5361C135.245 26.8444 134.882 27.0847 134.444 27.257C134.01 27.426 133.514 27.5106 132.958 27.5106Z" fill="#020817"/>
</svg>
