<svg width="17" height="17" viewBox="0 0 17 17" fill="none" xmlns="http://www.w3.org/2000/svg">
<path d="M13.3634 7.02279C13.3634 10.3515 9.67078 13.8181 8.43078 14.8888C8.31526 14.9757 8.17464 15.0226 8.03011 15.0226C7.88558 15.0226 7.74496 14.9757 7.62944 14.8888C6.38944 13.8181 2.69678 10.3515 2.69678 7.02279C2.69678 5.6083 3.25868 4.25174 4.25887 3.25155C5.25907 2.25136 6.61562 1.68945 8.03011 1.68945C9.4446 1.68945 10.8012 2.25136 11.8013 3.25155C12.8015 4.25174 13.3634 5.6083 13.3634 7.02279Z" stroke="#2563EB" stroke-width="1.33333" stroke-linecap="round" stroke-linejoin="round"/>
<path d="M8.03027 9.02344C9.13484 9.02344 10.0303 8.12801 10.0303 7.02344C10.0303 5.91887 9.13484 5.02344 8.03027 5.02344C6.9257 5.02344 6.03027 5.91887 6.03027 7.02344C6.03027 8.12801 6.9257 9.02344 8.03027 9.02344Z" stroke="#2563EB" stroke-width="1.33333" stroke-linecap="round" stroke-linejoin="round"/>
</svg>
