<svg width="21" height="21" viewBox="0 0 21 21" fill="none" xmlns="http://www.w3.org/2000/svg">
<path d="M18.3635 14.4569V16.9569C18.3644 17.1889 18.3169 17.4187 18.2239 17.6313C18.1309 17.844 17.9946 18.0348 17.8235 18.1917C17.6525 18.3486 17.4506 18.4681 17.2308 18.5424C17.0109 18.6168 16.7779 18.6444 16.5468 18.6235C13.9825 18.3449 11.5193 17.4686 9.35514 16.0652C7.34166 14.7857 5.63458 13.0787 4.35514 11.0652C2.94678 8.89119 2.07034 6.41601 1.7968 3.84018C1.77598 3.60974 1.80337 3.37749 1.87722 3.15821C1.95107 2.93893 2.06978 2.73743 2.22577 2.56654C2.38177 2.39565 2.57164 2.25911 2.7833 2.16562C2.99495 2.07213 3.22375 2.02374 3.45514 2.02352H5.95514C6.35956 2.01954 6.75163 2.16275 7.05827 2.42646C7.36491 2.69017 7.5652 3.05639 7.6218 3.45685C7.72732 4.25691 7.92301 5.04246 8.20514 5.79852C8.31726 6.09679 8.34152 6.42095 8.27506 6.73258C8.2086 7.04422 8.05419 7.33028 7.83014 7.55685L6.7718 8.61518C7.9581 10.7015 9.68551 12.4289 11.7718 13.6152L12.8301 12.5569C13.0567 12.3328 13.3428 12.1784 13.6544 12.1119C13.966 12.0455 14.2902 12.0697 14.5885 12.1819C15.3445 12.464 16.1301 12.6597 16.9301 12.7652C17.3349 12.8223 17.7046 13.0262 17.9689 13.3381C18.2332 13.65 18.3736 14.0482 18.3635 14.4569Z" stroke="#2563EB" stroke-width="1.66667" stroke-linecap="round" stroke-linejoin="round"/>
</svg>
